<?xml version="1.0" encoding="UTF-8" standalone="no"?>

<svg
 xmlns:svg="http://www.w3.org/2000/svg"
 xmlns="http://www.w3.org/2000/svg"
 viewBox="0 0 1100 1300"
>


<path
 d="m 415.34895,1042.1234 -39.1,70.9 -40,1.8 -43.6,-20 40,28.2 -66.4,-8.2 73.7,24.5 -49.1,12.8 114.5,1.8 39.1,11.8 -32.7,-30.9 48.2,6.4 -36.4,-18.2 0,-19.1 48.2,-12.7 -30,-6.7 10.6,-35.3 z m 86.1,41.1 -51.5,99.8 -61.8,0 -71.9,-1.8 76.4,17.2 -94.5,55.5 122.7,-40.9 -42.7,53.6 99.1,-47.3 105.4,13.7 -88.2,-40.9 106.4,1.8 -89.1,-32.7 0,-24.6 c 0,0 74.5,-5.4 73.6,-5.4 -0.9,0 -42.7,-9.1 -42.7,-9.1 l -6.3393,-31.68 z"
 style="fill:#e6e6e6"
 id="path3"
/>


<path
 d="m 968.79581,780.78535 c 65.4,-60 85.8,-77.8833 94.61669,-202.21671 9.7,-179.73328 -163.11667,-299.18329 -268.51645,-295.58329 -183.8,6.9 -243.5,103.8 -237.3,174.3 l 6.8,19.6 -60,144.6 -150,-191.8 -234.6,-19.1 -80.82502,127.0 -2.775,110.3015 c 74.311519,222.7477 208.214519,261.0 373.7,404.5 l 37.5,9.1 30.6,-30.0 18.2,61.8 42.4,10 c 71.4,-44.7 292.5,-219.0 292.5,-219.0 z"
 style="fill:#293939"
 id="path5"
/>


<path
 d="m 301.70275,94.865684 41,77.9 c 41,43.9 74.3,122.5 72.3,277.2 0,0 27.3,74.5 85.5,80 21.8,2.9 112.7,-116.4 112.7,-116.4 l -43.7,114.5 67.3,-21.8 -47.3,52.8 80,9 -45.4,27.3 40,36.4 -45.5,-9.1 -40,30.9 -14.5,101.8 -38.2,-80 -10.9,85.5 -27.3,-96.4 -9.1,105.5 -16.3,-89.1 -32.8,56.3 -20,-74.5 -18.1,78.2 -16.4,-107.3 -30.9,43.6 -3.6,-160.0 -21.9,60 -21.8,-58.1 c 0,0.1 -58.3,119.4 -58.5,119.6 -0.1,-0.4 -6.4,-94.2 -6.9,-94.2 l -34.6,65.5 -7.3,-96.4 -32.7,67.3 -9.1,-74.6 -40.0,54.6 -12.7,-60 -29.1,50.9 -16.4,5.4 -11.05,-19.75 5.65,-94.75 c 0,0 63.6,-80.0 98.2,-109.1 l 64,-165.7 10,-76.5 z"
 style="fill:#e6e6e6"
 id="path7"
/>


<path
 d="m 352.67525,85.576594 -15.7,6.1 c 0,0 -6.5,-28.3 -6.5,-27.8 0,0.4 -13.5,18.7 -13.5,18.7 l -7.3,-28.7 -16.1,20.8 -21.8,-31.7 -12.1,10.9 -15.7,-20.5 -13.5,18.7 -25.2,0 -28.7,-18.7 18.7,49.2 -30.9,22.1 1.4,46.5 c 1.4,-1.2 40.2,8.1 25.5,20.5 -9.3,5.7 -38.7,-0.7 -36.4,23.1 4.3,34.6 -14.5,48.2 -20.5,62.1 0,0 16.2,15 6,76.3 40.6,0.6 133,-3.9 73.9,-103.3 l 0.3,-54.1 c 101.2,-12.8 3.9,-55.5 3.9,-55.5 18.2,-46.4 87.0958,13.37918 123.8958,52.87918 -0.9,-54.2 10.3042,-87.579186 10.3042,-87.579186 z"
 style="fill:#a22626"
 id="path9"
/>


<path
 d="m 124.07665,188.94225 41.8,-37.9 c 1.4,-1.2 40.2,8.1 25.5,20.5 -9.3,5.7 -38.6333,1.76667 -36.4,23.1 0.4,1.2 -30.5,-6.6 -30.9,-5.7 z"
 style="fill:#e6e6e6"
 id="path11"
/>


<path
 d="m 212.74835,131.40265 c 0,0 -10.2,-2.2 -19.6,10.5 0,0 2.3,2.9 18.7,7.3 0,0 10.7,2.0 18.3,-8.7 0,0 -0.3,-3.7 -17.4,-9.1 z"
 style="fill:#293939"
 id="path13"
/>


</svg>
